<svg width="258" height="34" viewBox="0 0 258 34" fill="none" xmlns="http://www.w3.org/2000/svg">
<path d="M24.5575 19.865L32.2775 27.585C32.3575 27.665 32.3575 27.785 32.2775 27.865L27.3375 32.805C27.2575 32.885 27.1375 32.885 27.0575 32.805L9.1575 14.905C9.0275 14.775 8.8175 14.865 8.8175 15.045V31.265C8.8175 31.375 8.7275 31.465 8.6175 31.465H0.3075C0.2175 31.465 0.1375 31.405 0.1175 31.315L0.0075 30.845C-0.0125 30.775 0.0075 30.705 0.0675 30.655C0.3775 30.375 1.4375 29.365 1.4375 28.295V16.915C1.4375 16.805 1.5275 16.715 1.6375 16.715H2.8875C5.5975 16.715 7.0675 15.345 7.8675 13.815C7.9075 13.735 7.8875 13.645 7.8275 13.585L0.1075 5.85501C0.0275 5.77501 0.0275 5.65501 0.1075 5.57501L5.0475 0.635012C5.1275 0.555012 5.2475 0.555012 5.3275 0.635012L23.2275 18.535C23.3575 18.665 23.5675 18.575 23.5675 18.395V2.15501C23.5675 2.04501 23.6575 1.95501 23.7675 1.95501H32.0575C32.1475 1.95501 32.2275 2.01501 32.2475 2.11501L32.3575 2.60501C32.3775 2.67501 32.3575 2.74501 32.2975 2.79501C31.9775 3.07501 30.9375 4.07501 30.9375 5.15501V16.505C30.9375 16.615 30.8475 16.705 30.7375 16.705H29.5075C26.7975 16.705 25.3275 18.105 24.5275 19.625C24.4875 19.705 24.5075 19.795 24.5675 19.855L24.5575 19.865Z" fill="#0066FF"/>
<path d="M60.9575 3.83501C61.3075 3.83501 61.5875 3.73501 61.8175 3.52501C62.0375 3.32501 62.1575 3.06501 62.1575 2.76501C62.1575 2.46501 62.0475 2.18501 61.8175 1.98501C61.5975 1.78501 61.3075 1.68501 60.9575 1.68501C60.6075 1.68501 60.3375 1.78501 60.1075 1.98501C59.8875 2.19501 59.7775 2.45501 59.7775 2.76501C59.7775 3.07501 59.8875 3.32501 60.1075 3.52501C60.3275 3.73501 60.6075 3.83501 60.9575 3.83501Z" fill="#F7F7F7"/>
<path d="M67.7875 6.90501C68.3775 6.58501 69.0775 6.42501 69.8775 6.42501C70.8675 6.42501 71.7175 6.66501 72.4175 7.13501C73.1175 7.60501 73.5475 8.25501 73.7275 9.07501H75.3775C75.2475 8.28501 74.9275 7.58501 74.4175 6.99501C73.9075 6.40501 73.2575 5.93501 72.4875 5.59501C71.7075 5.25501 70.8375 5.08501 69.8775 5.08501C68.7775 5.08501 67.8075 5.30501 66.9675 5.74501C66.1275 6.18501 65.4775 6.78501 64.9975 7.56501C64.5175 8.34501 64.2875 9.24501 64.2875 10.275C64.2875 11.305 64.5275 12.195 64.9975 12.965C65.4775 13.735 66.1275 14.345 66.9675 14.785C67.8075 15.225 68.7775 15.445 69.8775 15.445C70.8375 15.445 71.7075 15.275 72.4875 14.945C73.2675 14.605 73.9075 14.145 74.4175 13.535C74.9275 12.935 75.2475 12.235 75.3775 11.455H73.7275C73.5675 12.265 73.1275 12.905 72.4375 13.385C71.7375 13.865 70.8875 14.105 69.8775 14.105C69.0775 14.105 68.3875 13.945 67.7875 13.625C67.1875 13.305 66.7375 12.865 66.4175 12.285C66.0975 11.715 65.9275 11.035 65.9275 10.265C65.9275 9.49501 66.0875 8.78501 66.4175 8.21501C66.7375 7.64501 67.1975 7.20501 67.7875 6.88501V6.90501Z" fill="#F7F7F7"/>
<path d="M86.1075 5.75501C85.2175 5.31501 84.1975 5.09501 83.0175 5.09501C81.8375 5.09501 80.8375 5.31501 79.9575 5.75501C79.0775 6.19501 78.3975 6.79501 77.8975 7.57501C77.4075 8.35501 77.1575 9.25501 77.1575 10.285C77.1575 11.315 77.4075 12.205 77.8975 12.985C78.3875 13.765 79.0775 14.365 79.9575 14.805C80.8375 15.245 81.8575 15.455 83.0175 15.455C84.1775 15.455 85.2175 15.235 86.1075 14.805C86.9975 14.375 87.6775 13.765 88.1775 12.985C88.6675 12.205 88.9175 11.305 88.9175 10.285C88.9175 9.26501 88.6675 8.35501 88.1775 7.57501C87.6875 6.80501 86.9975 6.19501 86.1075 5.75501ZM86.7575 12.305C86.4075 12.875 85.9175 13.325 85.2875 13.645C84.6475 13.965 83.9075 14.125 83.0375 14.125C82.1675 14.125 81.4375 13.965 80.7975 13.645C80.1575 13.325 79.6675 12.885 79.3175 12.305C78.9775 11.735 78.7975 11.055 78.7975 10.265C78.7975 9.47501 78.9775 8.81501 79.3175 8.24501C79.6575 7.67501 80.1575 7.22501 80.7975 6.90501C81.4375 6.58501 82.1775 6.42501 83.0375 6.42501C83.8975 6.42501 84.6575 6.58501 85.2875 6.90501C85.9175 7.22501 86.4075 7.66501 86.7575 8.24501C87.0975 8.81501 87.2775 9.49501 87.2775 10.265C87.2775 11.035 87.1075 11.735 86.7575 12.305Z" fill="#F7F7F7"/>
<path d="M104.197 1.33501H102.537L100.438 4.20501H102.037L104.197 1.33501Z" fill="#F7F7F7"/>
<path d="M105.658 5.32501L105.387 8.19501C105.277 7.99501 105.237 7.73501 105.107 7.55501C104.567 6.78501 103.917 6.17501 103.167 5.74501C102.417 5.30501 101.577 5.09501 100.667 5.09501C99.6975 5.09501 98.8375 5.31501 98.0875 5.75501C97.3375 6.19501 96.7475 6.79501 96.3175 7.57501C95.8875 8.35501 95.6775 9.25501 95.6775 10.285C95.6775 11.315 95.8975 12.205 96.3175 12.975C96.7475 13.745 97.3375 14.355 98.0875 14.795C98.8375 15.235 99.6975 15.455 100.667 15.455C101.577 15.455 102.417 15.235 103.167 14.805C103.927 14.375 104.567 13.765 105.107 12.995C105.237 12.805 105.277 12.545 105.387 12.345L105.658 15.225H107.307L106.837 10.285L107.307 5.32501H105.658ZM104.457 12.265C103.997 12.835 103.467 13.285 102.877 13.605C102.287 13.925 101.637 14.085 100.938 14.085C100.238 14.085 99.6075 13.925 99.0675 13.605C98.5275 13.285 98.0975 12.835 97.7975 12.265C97.4875 11.695 97.3275 11.035 97.3275 10.275C97.3275 9.51501 97.4875 8.84501 97.7975 8.27501C98.1075 7.70501 98.5375 7.25501 99.0675 6.93501C99.6075 6.61501 100.228 6.45501 100.938 6.45501C101.647 6.45501 102.287 6.61501 102.877 6.93501C103.477 7.25501 103.997 7.70501 104.457 8.27501C104.917 8.84501 105.297 9.51501 105.597 10.275C105.297 11.025 104.927 11.695 104.457 12.265Z" fill="#F7F7F7"/>
<path d="M119.567 10.985C119.327 10.615 118.917 10.305 118.337 10.075C117.767 9.83501 116.977 9.66501 115.987 9.56501L113.807 9.35501C112.937 9.26501 112.337 9.10501 111.997 8.87501C111.658 8.65501 111.487 8.35501 111.487 7.96501C111.487 7.44501 111.747 7.05501 112.267 6.78501C112.787 6.51501 113.518 6.37501 114.467 6.37501C115.228 6.37501 115.868 6.47501 116.397 6.65501C116.917 6.84501 117.327 7.09501 117.618 7.40501C117.908 7.71501 118.088 8.06501 118.147 8.45501H119.777C119.737 7.78501 119.477 7.20501 119.027 6.70501C118.577 6.20501 117.957 5.81501 117.177 5.52501C116.408 5.23501 115.527 5.09501 114.537 5.09501C113.607 5.09501 112.797 5.21501 112.097 5.44501C111.387 5.67501 110.847 6.01501 110.457 6.44501C110.067 6.88501 109.877 7.41501 109.877 8.06501C109.877 8.53501 109.997 8.96501 110.247 9.33501C110.497 9.71501 110.897 10.035 111.467 10.285C112.037 10.545 112.798 10.715 113.747 10.805L115.647 10.995C116.667 11.105 117.368 11.255 117.747 11.465C118.127 11.665 118.317 11.985 118.317 12.405C118.317 12.955 118.027 13.385 117.447 13.695C116.867 14.005 116.067 14.165 115.027 14.165C114.337 14.165 113.708 14.065 113.158 13.875C112.598 13.685 112.147 13.415 111.817 13.065C111.478 12.715 111.267 12.315 111.197 11.875H109.567C109.607 12.585 109.847 13.205 110.307 13.735C110.767 14.275 111.397 14.695 112.207 14.995C113.017 15.295 113.957 15.445 115.037 15.445C116.118 15.445 116.948 15.315 117.688 15.055C118.418 14.795 118.978 14.435 119.368 13.965C119.747 13.495 119.947 12.955 119.947 12.325C119.947 11.795 119.827 11.345 119.587 10.975L119.567 10.985Z" fill="#F7F7F7"/>
<path d="M61.7575 13.205V5.29501H59.3475L59.2375 5.77501C59.2375 5.77501 60.1575 6.51501 60.1575 7.32501V13.205C60.1575 14.015 59.2375 14.755 59.2375 14.755L59.3475 15.235H62.5575L62.6675 14.755C62.6675 14.755 61.7575 14.015 61.7475 13.215L61.7575 13.205Z" fill="#F7F7F7"/>
<path d="M55.1375 2.03501V13.405L45.9275 2.03501H43.7875V13.195C43.7875 14.005 42.8675 14.745 42.8675 14.745L42.9775 15.225H45.3675V3.81501L54.6175 15.225H56.7275V4.06501C56.7275 3.25501 57.6475 2.51501 57.6475 2.51501L57.5375 2.03501H55.1375Z" fill="#F7F7F7"/>
<path d="M93.0675 13.195V1.68501H90.6575L90.5475 2.16501C90.5475 2.16501 91.4675 2.90501 91.4675 3.71501V13.205C91.4675 14.015 90.5475 14.755 90.5475 14.755L90.6575 15.235H93.8675L93.9775 14.755C93.9775 14.755 93.0575 14.015 93.0575 13.205L93.0675 13.195Z" fill="#F7F7F7"/>
<path d="M138.257 2.54501C137.577 2.21501 136.777 2.05501 135.867 2.05501H128.307L128.197 2.53501C128.197 2.53501 129.117 3.27501 129.117 4.08501V13.215C129.117 14.025 128.197 14.765 128.197 14.765L128.307 15.245H131.557L131.667 14.765C131.667 14.765 130.747 14.025 130.747 13.215V9.91501H135.857C136.768 9.91501 137.568 9.74501 138.247 9.41501C138.927 9.07501 139.457 8.61501 139.837 8.02501C140.217 7.43501 140.408 6.75501 140.408 5.97501C140.408 5.19501 140.217 4.51501 139.837 3.92501C139.457 3.33501 138.927 2.87501 138.247 2.54501H138.257ZM137.958 7.79501C137.438 8.24501 136.727 8.47501 135.837 8.47501H130.757V3.49501H135.837C136.727 3.49501 137.438 3.71501 137.958 4.16501C138.478 4.61501 138.738 5.21501 138.738 5.97501C138.738 6.73501 138.478 7.34501 137.958 7.79501Z" fill="#F7F7F7"/>
<path d="M148.298 5.11501C147.637 5.11501 147.057 5.23501 146.537 5.47501C146.017 5.71501 145.577 6.04501 145.208 6.47501C144.838 6.90501 144.548 7.40501 144.348 7.99501C144.348 7.99501 144.348 8.00501 144.348 8.01501L143.897 5.34501H142.298L142.857 8.42501V13.225C142.857 14.025 141.938 14.765 141.938 14.765L142.048 15.245H145.257L145.367 14.765C145.367 14.765 144.457 14.035 144.447 13.225V10.545C144.447 9.72501 144.597 9.01501 144.917 8.41501C145.227 7.81501 145.658 7.35501 146.197 7.03501C146.737 6.71501 147.368 6.55501 148.068 6.55501C148.348 6.55501 148.637 6.57501 148.938 6.60501C149.238 6.63501 149.497 6.69501 149.717 6.76501V5.30501C149.538 5.24501 149.317 5.19501 149.057 5.16501C148.798 5.12501 148.537 5.11501 148.277 5.11501H148.298Z" fill="#F7F7F7"/>
<path d="M159.908 5.77501C159.018 5.33501 157.997 5.11501 156.818 5.11501C155.638 5.11501 154.637 5.33501 153.757 5.77501C152.877 6.21501 152.188 6.81501 151.697 7.59501C151.207 8.37501 150.958 9.27501 150.958 10.305C150.958 11.335 151.207 12.225 151.697 13.005C152.188 13.785 152.877 14.385 153.757 14.825C154.637 15.265 155.658 15.475 156.818 15.475C157.978 15.475 159.018 15.255 159.908 14.825C160.798 14.395 161.477 13.785 161.977 13.005C162.467 12.225 162.717 11.325 162.717 10.305C162.717 9.28501 162.467 8.37501 161.977 7.59501C161.487 6.82501 160.798 6.21501 159.908 5.77501ZM160.557 12.325C160.207 12.895 159.717 13.345 159.087 13.665C158.457 13.985 157.707 14.145 156.837 14.145C155.967 14.145 155.238 13.985 154.598 13.665C153.958 13.345 153.467 12.905 153.117 12.325C152.767 11.745 152.598 11.075 152.598 10.285C152.598 9.49501 152.777 8.83501 153.117 8.26501C153.457 7.69501 153.958 7.24501 154.598 6.92501C155.238 6.60501 155.977 6.44501 156.837 6.44501C157.697 6.44501 158.457 6.60501 159.087 6.92501C159.717 7.24501 160.207 7.68501 160.557 8.26501C160.897 8.83501 161.077 9.51501 161.077 10.285C161.077 11.055 160.908 11.755 160.557 12.325Z" fill="#F7F7F7"/>
<path d="M169.997 14.085C169.167 14.085 168.548 13.905 168.158 13.545C167.768 13.185 167.568 12.565 167.568 11.675V6.64501H172.408V5.34501H167.568V2.79501H166.598L165.967 5.46501L163.787 5.87501V6.64501H165.967V11.935C165.967 12.605 166.087 13.205 166.327 13.745C166.568 14.285 166.958 14.705 167.497 15.015C168.037 15.315 168.758 15.475 169.658 15.475C170.228 15.475 170.787 15.405 171.337 15.245C171.877 15.095 172.298 14.925 172.577 14.755V13.335C172.208 13.585 171.807 13.775 171.397 13.895C170.987 14.025 170.518 14.085 169.988 14.085H169.997Z" fill="#F7F7F7"/>
<path d="M182.967 5.77501C182.077 5.33501 181.057 5.11501 179.878 5.11501C178.698 5.11501 177.698 5.33501 176.818 5.77501C175.938 6.21501 175.247 6.81501 174.757 7.59501C174.267 8.37501 174.018 9.27501 174.018 10.305C174.018 11.335 174.267 12.225 174.757 13.005C175.247 13.785 175.938 14.385 176.818 14.825C177.698 15.265 178.717 15.475 179.878 15.475C181.038 15.475 182.077 15.255 182.967 14.825C183.857 14.395 184.537 13.785 185.037 13.005C185.527 12.225 185.777 11.325 185.777 10.305C185.777 9.28501 185.527 8.37501 185.037 7.59501C184.547 6.82501 183.857 6.21501 182.967 5.77501ZM183.617 12.325C183.267 12.895 182.777 13.345 182.147 13.665C181.517 13.985 180.767 14.145 179.897 14.145C179.027 14.145 178.298 13.985 177.658 13.665C177.018 13.345 176.527 12.905 176.177 12.325C175.837 11.755 175.658 11.075 175.658 10.285C175.658 9.49501 175.837 8.83501 176.177 8.26501C176.517 7.69501 177.018 7.24501 177.658 6.92501C178.298 6.60501 179.037 6.44501 179.897 6.44501C180.757 6.44501 181.517 6.60501 182.147 6.92501C182.777 7.24501 183.267 7.68501 183.617 8.26501C183.957 8.83501 184.137 9.51501 184.137 10.285C184.137 11.055 183.967 11.755 183.617 12.325Z" fill="#F7F7F7"/>
<path d="M197.357 5.77501C196.607 5.33501 195.747 5.11501 194.787 5.11501C193.827 5.11501 193.038 5.33501 192.268 5.76501C191.508 6.19501 190.857 6.80501 190.327 7.57501C190.128 7.86501 190.057 8.25501 189.897 8.57501V5.34501H187.488L187.378 5.82501C187.378 5.82501 188.298 6.56501 188.298 7.37501V16.125C188.298 16.935 187.378 17.675 187.378 17.675L187.488 18.155H190.697L190.807 17.675C190.807 17.675 189.887 16.935 189.887 16.125V12.005C190.048 12.335 190.128 12.725 190.327 13.015C190.867 13.785 191.518 14.395 192.268 14.825C193.027 15.265 193.857 15.475 194.777 15.475C195.697 15.475 196.598 15.255 197.348 14.815C198.098 14.375 198.688 13.775 199.107 12.995C199.537 12.215 199.747 11.325 199.747 10.305C199.747 9.28501 199.527 8.37501 199.107 7.59501C198.678 6.82501 198.098 6.21501 197.348 5.77501H197.357ZM197.658 12.285C197.348 12.855 196.917 13.305 196.378 13.625C195.838 13.945 195.207 14.105 194.507 14.105C193.807 14.105 193.168 13.945 192.568 13.625C191.967 13.305 191.448 12.855 190.988 12.285C190.538 11.715 190.157 11.055 189.867 10.295C190.157 9.53501 190.538 8.86501 190.988 8.29501C191.448 7.72501 191.967 7.27501 192.568 6.95501C193.168 6.63501 193.807 6.47501 194.507 6.47501C195.207 6.47501 195.838 6.63501 196.378 6.95501C196.928 7.27501 197.348 7.72501 197.658 8.29501C197.967 8.86501 198.128 9.53501 198.128 10.295C198.128 11.055 197.978 11.715 197.658 12.285Z" fill="#F7F7F7"/>
<path d="M210.378 10.095C209.807 9.85501 209.018 9.68501 208.027 9.58501L205.848 9.37501C204.978 9.28501 204.377 9.12501 204.037 8.89501C203.697 8.67501 203.527 8.37501 203.527 7.98501C203.527 7.46501 203.787 7.07501 204.307 6.80501C204.827 6.53501 205.557 6.39501 206.507 6.39501C207.267 6.39501 207.908 6.49501 208.438 6.67501C208.958 6.86501 209.368 7.11501 209.658 7.42501C209.947 7.73501 210.128 8.08501 210.188 8.47501H211.818C211.778 7.80501 211.518 7.22501 211.068 6.72501C210.618 6.22501 209.997 5.83501 209.217 5.54501C208.447 5.25501 207.568 5.11501 206.577 5.11501C205.648 5.11501 204.837 5.23501 204.137 5.46501C203.427 5.69501 202.887 6.03501 202.497 6.46501C202.107 6.90501 201.917 7.43501 201.917 8.08501C201.917 8.55501 202.037 8.98501 202.287 9.35501C202.537 9.73501 202.937 10.055 203.507 10.305C204.077 10.565 204.837 10.735 205.787 10.825L207.688 11.015C208.708 11.125 209.407 11.275 209.787 11.485C210.167 11.685 210.357 12.005 210.357 12.425C210.357 12.975 210.068 13.405 209.488 13.715C208.908 14.025 208.107 14.185 207.068 14.185C206.378 14.185 205.747 14.085 205.197 13.895C204.637 13.705 204.188 13.435 203.857 13.085C203.518 12.735 203.308 12.335 203.238 11.895H201.607C201.647 12.605 201.887 13.225 202.348 13.755C202.808 14.295 203.438 14.715 204.247 15.015C205.057 15.315 205.997 15.465 207.077 15.465C208.158 15.465 208.987 15.335 209.727 15.075C210.457 14.815 211.018 14.455 211.408 13.985C211.788 13.515 211.988 12.975 211.988 12.345C211.988 11.815 211.868 11.365 211.628 10.995C211.387 10.625 210.977 10.315 210.397 10.085L210.378 10.095Z" fill="#F7F7F7"/>
<path d="M223.867 5.34501L223.598 8.21501C223.488 8.01501 223.448 7.75501 223.318 7.57501C222.778 6.80501 222.128 6.19501 221.378 5.76501C220.628 5.32501 219.788 5.11501 218.878 5.11501C217.908 5.11501 217.048 5.33501 216.298 5.77501C215.548 6.21501 214.957 6.81501 214.527 7.59501C214.098 8.37501 213.887 9.27501 213.887 10.305C213.887 11.335 214.107 12.225 214.527 12.995C214.957 13.765 215.548 14.375 216.298 14.815C217.048 15.255 217.908 15.475 218.878 15.475C219.788 15.475 220.628 15.255 221.378 14.825C222.137 14.395 222.778 13.785 223.318 13.015C223.448 12.825 223.488 12.565 223.598 12.365L223.867 15.245H225.518L225.048 10.305L225.518 5.34501H223.867ZM222.667 12.285C222.207 12.855 221.677 13.305 221.087 13.625C220.497 13.945 219.847 14.105 219.147 14.105C218.447 14.105 217.817 13.945 217.287 13.625C216.747 13.305 216.318 12.855 216.018 12.285C215.708 11.715 215.548 11.055 215.548 10.295C215.548 9.53501 215.708 8.86501 216.018 8.29501C216.327 7.72501 216.757 7.27501 217.287 6.95501C217.827 6.63501 218.447 6.47501 219.147 6.47501C219.847 6.47501 220.497 6.63501 221.087 6.95501C221.688 7.27501 222.207 7.72501 222.667 8.29501C223.128 8.86501 223.507 9.53501 223.807 10.295C223.507 11.045 223.137 11.715 222.667 12.285Z" fill="#F7F7F7"/>
<path d="M243.717 3.84501C244.068 3.84501 244.348 3.74501 244.577 3.53501C244.798 3.33501 244.917 3.07501 244.917 2.77501C244.917 2.47501 244.807 2.19501 244.577 1.99501C244.357 1.79501 244.068 1.69501 243.717 1.69501C243.367 1.69501 243.097 1.79501 242.867 1.99501C242.647 2.20501 242.537 2.46501 242.537 2.77501C242.537 3.08501 242.647 3.33501 242.867 3.53501C243.087 3.74501 243.367 3.84501 243.717 3.84501Z" fill="#F7F7F7"/>
<path d="M256.987 11.005C256.747 10.635 256.337 10.325 255.757 10.095C255.187 9.85501 254.398 9.68501 253.408 9.58501L251.227 9.37501C250.357 9.28501 249.757 9.12501 249.417 8.89501C249.077 8.67501 248.908 8.37501 248.908 7.98501C248.908 7.46501 249.167 7.07501 249.688 6.80501C250.208 6.53501 250.938 6.39501 251.887 6.39501C252.647 6.39501 253.288 6.49501 253.818 6.67501C254.338 6.86501 254.747 7.11501 255.037 7.42501C255.327 7.73501 255.508 8.08501 255.568 8.47501H257.198C257.158 7.80501 256.898 7.22501 256.448 6.72501C255.998 6.22501 255.378 5.83501 254.598 5.54501C253.827 5.25501 252.948 5.11501 251.958 5.11501C251.028 5.11501 250.217 5.23501 249.518 5.46501C248.807 5.69501 248.268 6.03501 247.878 6.46501C247.488 6.90501 247.298 7.43501 247.298 8.08501C247.298 8.55501 247.417 8.98501 247.667 9.35501C247.917 9.73501 248.317 10.055 248.887 10.305C249.458 10.565 250.217 10.735 251.167 10.825L253.068 11.015C254.088 11.125 254.787 11.275 255.167 11.485C255.548 11.685 255.738 12.005 255.738 12.425C255.738 12.975 255.447 13.405 254.867 13.715C254.287 14.025 253.487 14.185 252.447 14.185C251.757 14.185 251.128 14.085 250.577 13.895C250.018 13.705 249.568 13.435 249.238 13.085C248.898 12.735 248.688 12.335 248.617 11.895H246.988C247.027 12.605 247.267 13.225 247.727 13.755C248.188 14.295 248.818 14.715 249.628 15.015C250.438 15.315 251.378 15.465 252.458 15.465C253.538 15.465 254.367 15.335 255.107 15.075C255.837 14.815 256.397 14.455 256.788 13.985C257.168 13.515 257.367 12.975 257.367 12.345C257.367 11.815 257.247 11.365 257.008 10.995L256.987 11.005Z" fill="#F7F7F7"/>
<path d="M230.057 13.215V1.70501H227.647L227.537 2.18501C227.537 2.18501 228.458 2.92501 228.458 3.73501V13.225C228.458 14.035 227.537 14.775 227.537 14.775L227.647 15.255H230.857L230.967 14.775C230.967 14.775 230.048 14.035 230.048 13.225L230.057 13.215Z" fill="#F7F7F7"/>
<path d="M244.518 13.215V5.34501H235.677V2.79501H234.708L234.068 5.46501L231.887 5.87501V6.64501H234.068V11.935C234.068 12.605 234.187 13.205 234.427 13.745C234.667 14.285 235.058 14.705 235.598 15.015C236.137 15.315 236.857 15.475 237.757 15.475C238.327 15.475 238.887 15.405 239.438 15.245C239.977 15.095 240.397 14.925 240.677 14.755V13.335C240.307 13.585 239.908 13.775 239.497 13.895C239.087 14.025 238.617 14.085 238.087 14.085C237.257 14.085 236.637 13.905 236.247 13.545C235.857 13.185 235.658 12.565 235.658 11.675V6.64501H242.897V13.225C242.897 14.035 241.977 14.765 241.977 14.765L242.087 15.245H245.298L245.408 14.765C245.408 14.765 244.488 14.025 244.488 13.215H244.518Z" fill="#F7F7F7"/>
<path d="M47.8175 23.255L43.7775 31.465H44.8875L45.8775 29.425H50.9775L51.9675 31.465H53.0875L49.0375 23.255H47.8175ZM46.2875 28.565L48.4175 24.165L50.5475 28.565H46.2875Z" fill="#F7F7F7"/>
<path d="M60.2875 25.575C59.8175 25.305 59.2875 25.165 58.6875 25.165C58.0875 25.165 57.5975 25.295 57.1175 25.565C56.6475 25.835 56.2375 26.215 55.9075 26.695C55.8075 26.835 55.7375 26.995 55.6575 27.145V23.035H54.6575V31.465H55.6575V29.625C55.7375 29.775 55.8075 29.935 55.9075 30.075C56.2375 30.555 56.6475 30.935 57.1175 31.205C57.5975 31.475 58.1175 31.605 58.6875 31.605C59.2875 31.605 59.8175 31.465 60.2875 31.195C60.7575 30.925 61.1175 30.545 61.3875 30.065C61.6575 29.585 61.7875 29.025 61.7875 28.395C61.7875 27.765 61.6575 27.195 61.3875 26.705C61.1175 26.225 60.7575 25.845 60.2875 25.575ZM60.4775 29.635C60.2875 29.995 60.0175 30.275 59.6775 30.475C59.3375 30.675 58.9475 30.775 58.5075 30.775C58.0675 30.775 57.6775 30.675 57.3075 30.475C56.9375 30.275 56.6075 29.995 56.3275 29.635C56.0375 29.275 55.8075 28.865 55.6275 28.395C55.8075 27.915 56.0375 27.505 56.3275 27.145C56.6075 26.785 56.9375 26.505 57.3075 26.305C57.6775 26.105 58.0775 26.005 58.5075 26.005C58.9375 26.005 59.3375 26.105 59.6775 26.305C60.0175 26.505 60.2875 26.785 60.4775 27.145C60.6675 27.505 60.7675 27.915 60.7675 28.395C60.7675 28.875 60.6675 29.275 60.4775 29.635Z" fill="#F7F7F7"/>
<path d="M68.9275 25.575C68.3775 25.305 67.7375 25.165 67.0075 25.165C66.2775 25.165 65.6475 25.305 65.0975 25.575C64.5475 25.845 64.1275 26.225 63.8175 26.705C63.5075 27.185 63.3575 27.745 63.3575 28.395C63.3575 29.045 63.5075 29.595 63.8175 30.075C64.1275 30.565 64.5475 30.935 65.0975 31.205C65.6475 31.475 66.2775 31.605 67.0075 31.605C67.7375 31.605 68.3775 31.475 68.9275 31.205C69.4775 30.935 69.9075 30.555 70.2175 30.075C70.5275 29.595 70.6775 29.025 70.6775 28.395C70.6775 27.765 70.5275 27.195 70.2175 26.705C69.9075 26.225 69.4775 25.845 68.9275 25.575ZM69.3275 29.655C69.1075 30.015 68.8075 30.295 68.4075 30.485C68.0175 30.685 67.5475 30.785 67.0075 30.785C66.4675 30.785 66.0075 30.685 65.6075 30.485C65.2075 30.285 64.9075 30.015 64.6875 29.655C64.4675 29.295 64.3675 28.875 64.3675 28.385C64.3675 27.895 64.4775 27.485 64.6875 27.125C64.8975 26.765 65.2075 26.485 65.6075 26.295C66.0075 26.095 66.4675 25.995 67.0075 25.995C67.5475 25.995 68.0175 26.095 68.4075 26.295C68.7975 26.495 69.1075 26.765 69.3275 27.125C69.5375 27.485 69.6475 27.905 69.6475 28.385C69.6475 28.865 69.5375 29.295 69.3275 29.655Z" fill="#F7F7F7"/>
<path d="M78.3575 26.995C78.2775 26.855 78.2175 26.715 78.1075 26.575C77.9075 26.315 77.6575 26.075 77.3675 25.865C77.0775 25.645 76.7475 25.475 76.3975 25.355C76.0375 25.225 75.6475 25.165 75.2375 25.165C74.6775 25.165 74.1775 25.285 73.7275 25.535C73.2775 25.785 72.9275 26.125 72.6575 26.575C72.3875 27.025 72.2675 27.535 72.2675 28.125C72.2675 28.715 72.3975 29.235 72.6575 29.675C72.9175 30.115 73.2775 30.465 73.7275 30.715C74.1775 30.965 74.6775 31.085 75.2375 31.085C75.7575 31.085 76.2275 30.985 76.6575 30.795C77.0875 30.605 77.4575 30.355 77.7775 30.055C78.0275 29.815 78.2175 29.565 78.3775 29.305V29.985C78.3775 30.795 78.1375 31.435 77.6675 31.895C77.1975 32.355 76.5175 32.595 75.6175 32.595C75.1675 32.595 74.7075 32.525 74.2475 32.385C73.7875 32.245 73.3375 31.995 72.8975 31.645V32.525C73.3175 32.835 73.7475 33.055 74.1975 33.205C74.6475 33.355 75.1475 33.425 75.6875 33.425C76.3875 33.425 77.0175 33.295 77.5775 33.035C78.1375 32.775 78.5775 32.375 78.8975 31.845C79.2175 31.315 79.3775 30.645 79.3775 29.835V25.315H78.3775V27.015L78.3575 26.995ZM77.0675 29.755C76.5775 30.095 76.0575 30.265 75.4875 30.265C75.0175 30.265 74.6075 30.175 74.2875 29.985C73.9575 29.795 73.7075 29.545 73.5375 29.215C73.3675 28.885 73.2775 28.515 73.2775 28.105C73.2775 27.695 73.3675 27.305 73.5375 26.985C73.7075 26.665 73.9575 26.405 74.2875 26.225C74.6175 26.035 75.0175 25.945 75.4875 25.945C76.0575 25.945 76.5875 26.115 77.0775 26.445C77.5675 26.775 78.0075 27.335 78.4075 28.105C78.0075 28.865 77.5675 29.415 77.0775 29.755H77.0675Z" fill="#F7F7F7"/>
<path d="M86.0575 25.465C85.5675 25.265 85.0175 25.155 84.3975 25.155C83.9075 25.155 83.4475 25.215 83.0275 25.325C82.5975 25.435 82.1975 25.615 81.8075 25.865V26.685C82.1875 26.425 82.5875 26.245 82.9975 26.145C83.4075 26.045 83.8275 25.985 84.2275 25.985C85.0175 25.985 85.6175 26.155 86.0275 26.495C86.4375 26.835 86.6475 27.305 86.6475 27.895V28.715C86.5075 28.555 86.3575 28.395 86.1475 28.245C85.8675 28.035 85.5375 27.865 85.1575 27.735C84.7775 27.605 84.3575 27.535 83.9075 27.535C83.4175 27.535 82.9775 27.615 82.5675 27.785C82.1575 27.955 81.8475 28.185 81.6075 28.495C81.3675 28.795 81.2475 29.155 81.2475 29.565C81.2475 29.975 81.3675 30.335 81.6075 30.635C81.8475 30.935 82.1675 31.175 82.5575 31.345C82.9575 31.515 83.4075 31.595 83.8975 31.595C84.3475 31.595 84.7675 31.525 85.1475 31.385C85.5275 31.245 85.8575 31.075 86.1375 30.855C86.3575 30.685 86.4975 30.515 86.6375 30.335V31.445H87.5975V27.945C87.5975 27.315 87.4575 26.795 87.1775 26.375C86.8975 25.955 86.5175 25.645 86.0375 25.445L86.0575 25.465ZM85.5375 30.565C85.1175 30.765 84.6575 30.875 84.1575 30.875C83.5675 30.875 83.1075 30.755 82.7775 30.515C82.4475 30.275 82.2875 29.965 82.2875 29.565C82.2875 29.165 82.4475 28.875 82.7775 28.625C83.1075 28.375 83.5675 28.255 84.1575 28.255C84.6375 28.255 85.0875 28.355 85.5175 28.565C85.9375 28.765 86.3275 29.105 86.6775 29.565C86.3375 30.025 85.9675 30.355 85.5475 30.565H85.5375Z" fill="#F7F7F7"/>
<path d="M95.9275 23.035L95.5475 27.065C95.4775 26.945 95.4175 26.805 95.3475 26.695C95.0075 26.215 94.6075 25.835 94.1375 25.565C93.6675 25.295 93.1475 25.165 92.5775 25.165C91.9775 25.165 91.4375 25.305 90.9675 25.575C90.4975 25.845 90.1375 26.225 89.8675 26.705C89.5975 27.185 89.4675 27.745 89.4675 28.395C89.4675 29.045 89.5975 29.585 89.8675 30.065C90.1375 30.545 90.4975 30.925 90.9675 31.195C91.4375 31.465 91.9675 31.605 92.5775 31.605C93.1475 31.605 93.6675 31.475 94.1375 31.205C94.6075 30.935 95.0075 30.555 95.3375 30.075C95.4075 29.965 95.4675 29.845 95.5275 29.725L95.6875 31.465H96.7075L96.4275 28.345L96.9475 23.035H95.9275ZM94.9375 29.625C94.6475 29.985 94.3175 30.265 93.9475 30.465C93.5775 30.665 93.1775 30.765 92.7375 30.765C92.2975 30.765 91.9175 30.665 91.5775 30.465C91.2375 30.265 90.9775 29.985 90.7875 29.625C90.5975 29.265 90.4975 28.855 90.4975 28.385C90.4975 27.915 90.5975 27.495 90.7875 27.135C90.9775 26.775 91.2475 26.495 91.5775 26.295C91.9175 26.095 92.2975 25.995 92.7375 25.995C93.1775 25.995 93.5775 26.095 93.9475 26.295C94.3175 26.495 94.6475 26.775 94.9375 27.135C95.2275 27.495 95.4575 27.905 95.6475 28.385C95.4675 28.855 95.2275 29.265 94.9375 29.625Z" fill="#F7F7F7"/>
<path d="M104.048 25.575C103.497 25.305 102.857 25.165 102.127 25.165C101.397 25.165 100.768 25.305 100.217 25.575C99.6675 25.845 99.2475 26.225 98.9375 26.705C98.6275 27.185 98.4775 27.745 98.4775 28.395C98.4775 29.045 98.6275 29.595 98.9375 30.075C99.2475 30.565 99.6675 30.935 100.217 31.205C100.768 31.475 101.397 31.605 102.127 31.605C102.857 31.605 103.497 31.475 104.048 31.205C104.598 30.935 105.027 30.555 105.337 30.075C105.647 29.595 105.798 29.025 105.798 28.395C105.798 27.765 105.647 27.195 105.337 26.705C105.027 26.225 104.598 25.845 104.048 25.575ZM104.447 29.655C104.227 30.015 103.927 30.295 103.527 30.485C103.137 30.685 102.667 30.785 102.127 30.785C101.587 30.785 101.128 30.685 100.728 30.485C100.327 30.285 100.027 30.015 99.8075 29.655C99.5875 29.295 99.4875 28.875 99.4875 28.385C99.4875 27.895 99.5975 27.485 99.8075 27.125C100.017 26.765 100.327 26.485 100.728 26.295C101.128 26.095 101.587 25.995 102.127 25.995C102.667 25.995 103.137 26.095 103.527 26.295C103.917 26.495 104.227 26.765 104.447 27.125C104.657 27.485 104.767 27.905 104.767 28.385C104.767 28.865 104.657 29.295 104.447 29.655Z" fill="#F7F7F7"/>
<path d="M116.728 23.565C116.308 23.365 115.807 23.255 115.237 23.255H111.027V31.465H112.048V28.145H115.237C115.807 28.145 116.308 28.045 116.728 27.835C117.147 27.625 117.478 27.335 117.717 26.975C117.957 26.605 118.077 26.185 118.077 25.695C118.077 25.205 117.957 24.785 117.717 24.415C117.478 24.045 117.147 23.755 116.728 23.555V23.565ZM116.537 26.835C116.217 27.115 115.768 27.255 115.217 27.255H112.048V24.155H115.217C115.768 24.155 116.207 24.295 116.537 24.575C116.868 24.855 117.027 25.225 117.027 25.705C117.027 26.185 116.868 26.555 116.537 26.835Z" fill="#F7F7F7"/>
<path d="M125.688 26.825C125.418 26.295 125.027 25.885 124.537 25.595C124.048 25.305 123.467 25.155 122.807 25.155C122.147 25.155 121.527 25.295 121.017 25.565C120.507 25.835 120.097 26.215 119.807 26.695C119.517 27.175 119.368 27.735 119.368 28.375C119.368 29.015 119.527 29.575 119.827 30.065C120.137 30.545 120.567 30.925 121.107 31.195C121.647 31.465 122.277 31.605 122.987 31.605C123.507 31.605 124.027 31.515 124.557 31.335C125.087 31.155 125.537 30.915 125.917 30.605V29.815C125.527 30.105 125.097 30.335 124.607 30.515C124.127 30.685 123.628 30.775 123.118 30.775C122.558 30.775 122.077 30.675 121.667 30.475C121.257 30.275 120.938 29.995 120.717 29.625C120.548 29.345 120.467 29.025 120.427 28.675H126.087C126.087 27.975 125.947 27.355 125.677 26.835L125.688 26.825ZM121.517 26.275C121.877 26.085 122.297 25.985 122.777 25.985C123.227 25.985 123.627 26.075 123.957 26.255C124.297 26.435 124.558 26.695 124.757 27.035C124.897 27.275 124.977 27.565 125.027 27.865H120.438C120.478 27.585 120.557 27.315 120.677 27.085C120.877 26.735 121.147 26.465 121.507 26.265L121.517 26.275Z" fill="#F7F7F7"/>
<path d="M133.098 25.505C132.698 25.275 132.208 25.165 131.628 25.165C131.088 25.165 130.607 25.285 130.177 25.535C129.747 25.775 129.407 26.125 129.147 26.565C129.087 26.665 129.048 26.795 128.997 26.905L128.727 25.305H127.728L128.077 27.255V31.475H129.077V28.445C129.077 27.965 129.167 27.545 129.357 27.185C129.548 26.825 129.807 26.545 130.147 26.335C130.487 26.135 130.887 26.025 131.337 26.025C131.997 26.025 132.487 26.215 132.837 26.585C133.177 26.965 133.348 27.515 133.348 28.255V31.475H134.348V28.095C134.348 27.475 134.238 26.945 134.027 26.515C133.817 26.085 133.507 25.745 133.107 25.515L133.098 25.505Z" fill="#F7F7F7"/>
<path d="M140.938 25.465C140.447 25.265 139.897 25.155 139.277 25.155C138.787 25.155 138.327 25.215 137.908 25.325C137.478 25.435 137.077 25.615 136.688 25.865V26.685C137.068 26.425 137.467 26.245 137.878 26.145C138.288 26.045 138.708 25.985 139.107 25.985C139.897 25.985 140.497 26.155 140.908 26.495C141.318 26.835 141.527 27.305 141.527 27.895V28.715C141.387 28.555 141.238 28.395 141.027 28.245C140.747 28.035 140.417 27.865 140.037 27.735C139.657 27.605 139.237 27.535 138.787 27.535C138.297 27.535 137.857 27.615 137.447 27.785C137.037 27.955 136.728 28.185 136.488 28.495C136.247 28.795 136.128 29.155 136.128 29.565C136.128 29.975 136.247 30.335 136.488 30.635C136.728 30.935 137.048 31.175 137.438 31.345C137.837 31.515 138.287 31.595 138.777 31.595C139.227 31.595 139.647 31.525 140.027 31.385C140.408 31.245 140.738 31.075 141.018 30.855C141.238 30.685 141.378 30.515 141.518 30.335V31.445H142.477V27.945C142.477 27.315 142.337 26.795 142.057 26.375C141.777 25.955 141.397 25.645 140.917 25.445L140.938 25.465ZM140.417 30.565C139.997 30.765 139.537 30.875 139.037 30.875C138.447 30.875 137.988 30.755 137.658 30.515C137.327 30.275 137.167 29.965 137.167 29.565C137.167 29.165 137.327 28.875 137.658 28.625C137.988 28.375 138.447 28.255 139.037 28.255C139.517 28.255 139.967 28.355 140.397 28.565C140.817 28.765 141.207 29.105 141.557 29.565C141.217 30.025 140.847 30.355 140.427 30.565H140.417Z" fill="#F7F7F7"/>
<path d="M145.757 23.035H144.757V31.465H145.757V23.035Z" fill="#F7F7F7"/>
<path d="M148.098 25.275V31.465H149.087V25.275L148.587 25.365L148.098 25.275Z" fill="#F7F7F7"/>
<path d="M148.587 23.025C148.377 23.025 148.197 23.085 148.057 23.215C147.917 23.345 147.848 23.505 147.848 23.705C147.848 23.905 147.917 24.055 148.057 24.185C148.197 24.315 148.367 24.375 148.587 24.375C148.807 24.375 148.988 24.315 149.128 24.185C149.268 24.055 149.337 23.895 149.337 23.705C149.337 23.515 149.268 23.345 149.128 23.215C148.988 23.085 148.807 23.025 148.587 23.025Z" fill="#F7F7F7"/>
<path d="M156.458 28.255C156.098 28.105 155.607 28.005 154.988 27.935L153.628 27.805C153.088 27.745 152.708 27.645 152.497 27.505C152.287 27.365 152.177 27.175 152.177 26.935C152.177 26.615 152.337 26.365 152.658 26.205C152.978 26.035 153.438 25.955 154.027 25.955C154.497 25.955 154.897 26.015 155.227 26.135C155.548 26.255 155.808 26.405 155.988 26.605C156.167 26.795 156.278 27.015 156.318 27.255H157.337C157.307 26.835 157.147 26.475 156.867 26.165C156.577 25.855 156.197 25.615 155.717 25.435C155.238 25.255 154.688 25.165 154.077 25.165C153.497 25.165 152.997 25.235 152.557 25.385C152.117 25.535 151.777 25.735 151.537 26.005C151.297 26.275 151.177 26.615 151.177 27.015C151.177 27.305 151.258 27.575 151.408 27.805C151.557 28.045 151.817 28.235 152.167 28.395C152.527 28.555 152.997 28.665 153.587 28.715L154.768 28.835C155.408 28.905 155.837 28.995 156.077 29.125C156.318 29.255 156.438 29.445 156.438 29.715C156.438 30.055 156.257 30.325 155.897 30.525C155.537 30.715 155.037 30.815 154.387 30.815C153.958 30.815 153.567 30.755 153.227 30.635C152.877 30.515 152.598 30.345 152.387 30.135C152.177 29.925 152.047 29.675 152.007 29.395H150.988C151.008 29.835 151.167 30.215 151.447 30.555C151.727 30.895 152.128 31.155 152.628 31.335C153.128 31.525 153.717 31.615 154.387 31.615C155.057 31.615 155.577 31.535 156.037 31.375C156.497 31.215 156.837 30.985 157.087 30.695C157.327 30.405 157.447 30.065 157.447 29.675C157.447 29.345 157.377 29.065 157.227 28.835C157.077 28.605 156.827 28.415 156.467 28.265L156.458 28.255Z" fill="#F7F7F7"/>
<path d="M162.438 30.745C161.917 30.745 161.537 30.635 161.287 30.415C161.047 30.195 160.917 29.805 160.917 29.245V26.115H163.927V25.305H160.917V23.715H160.318L159.927 25.375L158.568 25.625V26.105H159.927V29.405C159.927 29.825 160.007 30.195 160.147 30.535C160.297 30.875 160.538 31.135 160.878 31.325C161.217 31.515 161.657 31.605 162.227 31.605C162.587 31.605 162.938 31.555 163.277 31.465C163.617 31.365 163.878 31.265 164.048 31.155V30.265C163.818 30.415 163.568 30.535 163.318 30.615C163.058 30.695 162.768 30.735 162.438 30.735V30.745Z" fill="#F7F7F7"/>
<path d="M172.587 25.305H171.557L171.397 27.015C171.337 26.905 171.288 26.795 171.217 26.695C170.878 26.215 170.477 25.835 170.007 25.565C169.537 25.295 169.018 25.165 168.447 25.165C167.847 25.165 167.307 25.305 166.837 25.575C166.367 25.845 166.008 26.225 165.738 26.705C165.467 27.185 165.337 27.745 165.337 28.395C165.337 29.045 165.467 29.585 165.738 30.065C166.008 30.545 166.367 30.925 166.837 31.195C167.307 31.465 167.837 31.605 168.447 31.605C169.018 31.605 169.537 31.475 170.007 31.205C170.477 30.935 170.878 30.555 171.208 30.075C171.278 29.975 171.327 29.855 171.387 29.745L171.548 31.465H172.577L172.287 28.385L172.577 25.295L172.587 25.305ZM170.807 29.625C170.518 29.985 170.188 30.265 169.818 30.465C169.448 30.665 169.048 30.765 168.607 30.765C168.167 30.765 167.787 30.665 167.447 30.465C167.107 30.265 166.848 29.985 166.658 29.625C166.467 29.265 166.367 28.855 166.367 28.385C166.367 27.915 166.467 27.495 166.658 27.135C166.848 26.775 167.117 26.495 167.447 26.295C167.787 26.095 168.167 25.995 168.607 25.995C169.048 25.995 169.448 26.095 169.818 26.295C170.188 26.495 170.518 26.775 170.807 27.135C171.097 27.495 171.327 27.905 171.518 28.385C171.338 28.855 171.097 29.265 170.807 29.625Z" fill="#F7F7F7"/>
</svg>
