<svg width="100" height="99" viewBox="0 0 100 99" fill="none" xmlns="http://www.w3.org/2000/svg">
<path d="M75.8826 59.1396L99.7118 82.7871C99.9577 83.0312 99.9577 83.4217 99.7118 83.6413L84.4404 98.7962C84.1945 99.0402 83.801 99.0402 83.5797 98.7962L28.298 43.9359C27.9045 43.5455 27.2406 43.8139 27.2406 44.3752V94.0862C27.2406 94.4279 26.97 94.6963 26.6258 94.6963H0.952217C0.657119 94.6963 0.411204 94.5011 0.362021 94.2326L0.0177393 92.7928C-0.0314437 92.5732 0.0177393 92.3535 0.214471 92.2071C1.17354 91.353 4.44421 88.2292 4.44421 84.9591V50.0857C4.44421 49.7441 4.71472 49.4756 5.059 49.4756H8.94446C17.3056 49.4756 21.855 45.2537 24.3388 40.5926C24.4617 40.3485 24.4125 40.0557 24.2158 39.8849L0.337429 16.2129C0.0915139 15.9689 0.0915139 15.5784 0.337429 15.3588L15.6088 0.203904C15.8547 -0.040136 16.2481 -0.040136 16.4695 0.203904L71.7758 55.0886C72.1693 55.479 72.8332 55.2106 72.8332 54.6493V4.86507C72.8332 4.52342 73.1037 4.25497 73.448 4.25497H99.0478C99.3429 4.25497 99.5888 4.45021 99.638 4.71865L99.9823 6.2317C100.031 6.45134 99.9823 6.67097 99.7855 6.8174C98.8019 7.67154 95.5804 10.722 95.5804 14.0654V48.8655C95.5804 49.2072 95.3099 49.4756 94.9656 49.4756H91.1785C82.8174 49.4756 78.268 53.7708 75.7842 58.4319C75.6613 58.676 75.7104 58.9688 75.9072 59.1396H75.8826Z" fill="url(#paint0_linear_41_2510)"/>
<defs>
<linearGradient id="paint0_linear_41_2510" x1="50" y1="0.020874" x2="50" y2="98.9792" gradientUnits="userSpaceOnUse">
<stop stop-color="#003F9C"/>
<stop offset="1" stop-color="#003F9C" stop-opacity="0"/>
</linearGradient>
</defs>
</svg>
